<mxfile host="app.diagrams.net" modified="2023-04-05T13:43:10.228Z" agent="5.0 (Windows NT 10.0; Win64; x64) AppleWebKit/537.36 (KHTML, like Gecko) Chrome/111.0.0.0 Safari/537.36" etag="INRiuVsYB4-3CM_Eg9Ku" version="20.8.23" type="github">
  <diagram name="Strona-1" id="-JiSpUrFZ-lmFqI0zwoz">
    <mxGraphModel dx="1434" dy="796" grid="1" gridSize="10" guides="1" tooltips="1" connect="1" arrows="1" fold="1" page="1" pageScale="1" pageWidth="827" pageHeight="1169" math="0" shadow="0">
      <root>
        <mxCell id="0" />
        <mxCell id="1" parent="0" />
        <mxCell id="-k42w5bfUMXE7L4yGYJT-4" style="edgeStyle=orthogonalEdgeStyle;rounded=0;orthogonalLoop=1;jettySize=auto;html=1;exitX=0.5;exitY=1;exitDx=0;exitDy=0;" edge="1" parent="1" source="-k42w5bfUMXE7L4yGYJT-1" target="-k42w5bfUMXE7L4yGYJT-5">
          <mxGeometry relative="1" as="geometry">
            <mxPoint x="414" y="300" as="targetPoint" />
          </mxGeometry>
        </mxCell>
        <mxCell id="-k42w5bfUMXE7L4yGYJT-1" value="" style="ellipse;whiteSpace=wrap;html=1;" vertex="1" parent="1">
          <mxGeometry x="354" y="160" width="120" height="80" as="geometry" />
        </mxCell>
        <mxCell id="-k42w5bfUMXE7L4yGYJT-2" value="start" style="text;html=1;strokeColor=none;fillColor=none;align=center;verticalAlign=middle;whiteSpace=wrap;rounded=0;" vertex="1" parent="1">
          <mxGeometry x="384" y="185" width="60" height="30" as="geometry" />
        </mxCell>
        <mxCell id="-k42w5bfUMXE7L4yGYJT-6" style="edgeStyle=orthogonalEdgeStyle;rounded=0;orthogonalLoop=1;jettySize=auto;html=1;" edge="1" parent="1" source="-k42w5bfUMXE7L4yGYJT-5" target="-k42w5bfUMXE7L4yGYJT-7">
          <mxGeometry relative="1" as="geometry">
            <mxPoint x="410" y="400" as="targetPoint" />
          </mxGeometry>
        </mxCell>
        <mxCell id="-k42w5bfUMXE7L4yGYJT-5" value="pobierz a i b" style="rounded=0;whiteSpace=wrap;html=1;" vertex="1" parent="1">
          <mxGeometry x="354" y="270" width="120" height="60" as="geometry" />
        </mxCell>
        <mxCell id="-k42w5bfUMXE7L4yGYJT-8" style="edgeStyle=orthogonalEdgeStyle;rounded=0;orthogonalLoop=1;jettySize=auto;html=1;" edge="1" parent="1" source="-k42w5bfUMXE7L4yGYJT-7" target="-k42w5bfUMXE7L4yGYJT-9">
          <mxGeometry relative="1" as="geometry">
            <mxPoint x="230" y="460" as="targetPoint" />
          </mxGeometry>
        </mxCell>
        <mxCell id="-k42w5bfUMXE7L4yGYJT-13" style="edgeStyle=orthogonalEdgeStyle;rounded=0;orthogonalLoop=1;jettySize=auto;html=1;entryX=0.667;entryY=0;entryDx=0;entryDy=0;entryPerimeter=0;" edge="1" parent="1" source="-k42w5bfUMXE7L4yGYJT-7" target="-k42w5bfUMXE7L4yGYJT-12">
          <mxGeometry relative="1" as="geometry" />
        </mxCell>
        <mxCell id="-k42w5bfUMXE7L4yGYJT-7" value="b=0" style="rhombus;whiteSpace=wrap;html=1;" vertex="1" parent="1">
          <mxGeometry x="370" y="360" width="90" height="80" as="geometry" />
        </mxCell>
        <mxCell id="-k42w5bfUMXE7L4yGYJT-10" style="edgeStyle=orthogonalEdgeStyle;rounded=0;orthogonalLoop=1;jettySize=auto;html=1;" edge="1" parent="1" source="-k42w5bfUMXE7L4yGYJT-9" target="-k42w5bfUMXE7L4yGYJT-11">
          <mxGeometry relative="1" as="geometry">
            <mxPoint x="220" y="630" as="targetPoint" />
            <Array as="points">
              <mxPoint x="250" y="620" />
            </Array>
          </mxGeometry>
        </mxCell>
        <mxCell id="-k42w5bfUMXE7L4yGYJT-9" value="wypisz błąd spowodowany przez zero" style="rounded=0;whiteSpace=wrap;html=1;" vertex="1" parent="1">
          <mxGeometry x="160" y="470" width="120" height="60" as="geometry" />
        </mxCell>
        <mxCell id="-k42w5bfUMXE7L4yGYJT-11" value="stop" style="ellipse;whiteSpace=wrap;html=1;" vertex="1" parent="1">
          <mxGeometry x="324" y="580" width="120" height="80" as="geometry" />
        </mxCell>
        <mxCell id="-k42w5bfUMXE7L4yGYJT-17" style="edgeStyle=orthogonalEdgeStyle;rounded=0;orthogonalLoop=1;jettySize=auto;html=1;" edge="1" parent="1" source="-k42w5bfUMXE7L4yGYJT-12" target="-k42w5bfUMXE7L4yGYJT-11">
          <mxGeometry relative="1" as="geometry">
            <Array as="points">
              <mxPoint x="560" y="620" />
            </Array>
          </mxGeometry>
        </mxCell>
        <mxCell id="-k42w5bfUMXE7L4yGYJT-12" value="wypisz wynik a/b" style="rounded=0;whiteSpace=wrap;html=1;" vertex="1" parent="1">
          <mxGeometry x="500" y="470" width="120" height="60" as="geometry" />
        </mxCell>
        <mxCell id="-k42w5bfUMXE7L4yGYJT-15" value="N" style="text;html=1;strokeColor=none;fillColor=none;align=center;verticalAlign=middle;whiteSpace=wrap;rounded=0;" vertex="1" parent="1">
          <mxGeometry x="310" y="360" width="60" height="30" as="geometry" />
        </mxCell>
        <mxCell id="-k42w5bfUMXE7L4yGYJT-16" value="T" style="text;html=1;strokeColor=none;fillColor=none;align=center;verticalAlign=middle;whiteSpace=wrap;rounded=0;" vertex="1" parent="1">
          <mxGeometry x="460" y="360" width="60" height="30" as="geometry" />
        </mxCell>
      </root>
    </mxGraphModel>
  </diagram>
</mxfile>
